<?xml version="1.0" encoding="UTF-8"?>
<svg width="258px" height="53px" viewBox="0 0 258 53" version="1.1"
    xmlns="http://www.w3.org/2000/svg"
    xmlns:xlink="http://www.w3.org/1999/xlink">
    <!-- Generator: Sketch 53.2 (72643) - https://sketchapp.com -->
    <title>Group 2</title>
    <desc>Created with Sketch.</desc>
    <g id="Blogartikel" stroke="none" stroke-width="1" fill="none" fill-rule="evenodd">
        <g id="Desktop-HD-Copy-2" transform="translate(-11.000000, -328.000000)" fill-rule="nonzero">
            <g id="Group-2" transform="translate(11.026074, 328.769883)">
                <g id="Group" transform="translate(66.973926, 5.230117)" fill="#010202">
                    <path d="M123.7,12.7 C118.8,12.7 115.8,15.5 114.6,17.4 L114.4,17.4 L114,13.3 L106.1,13.3 C106.2,15.4 106.3,17.7 106.3,20.4 C105.4,18.5 104.1,16.9 102.4,15.6 L96.7,21.3 C97.9,23 98.4,25.4 98.4,27.9 C98.4,33.2 96.2,36.8 92.6,36.8 C88.7,36.8 86.6,33 86.6,28 C86.6,23.7 88.3,19.2 92.6,19.2 C92.7,19.2 92.8,19.2 93,19.2 L93,12.6 C93,12.6 93,12.6 92.9,12.6 C86,12.6 80.8,15.8 78.5,21.3 C77.4,15.3 73.6,12.6 69,12.6 C66.8,12.6 65,13.1 63.4,14 C62,14.8 60.7,16 59.6,17.6 L59.5,17.6 C58.2,14.5 55.3,12.6 51.5,12.6 C46.5,12.6 43.9,15.4 42.6,17.3 L42.4,17.3 L42,13.3 L34.3,13.3 C34.4,15.1 34.5,17 34.5,19.2 C32.6,15.4 29,12.6 23.2,12.6 C16.3,12.6 12,16.4 9.9,21.1 L9.9,0.1 L0.8,0.1 L0.8,42.7 L9.9,42.7 L9.9,35.6 C12.2,40.5 17.1,43.3 24.1,43.3 C28,43.3 31.6,42.7 34.6,41.5 L34.6,42.7 L43.5,42.7 L43.5,25.6 C43.5,24.8 43.6,24 43.9,23.3 C44.4,21.9 45.8,20.1 48.2,20.1 C51.1,20.1 52.5,22.6 52.5,26.3 L52.5,42.8 L61.4,42.8 L61.4,25.6 C61.4,24.8 61.5,23.9 61.7,23.3 C62.4,21.6 63.8,20.1 66,20.1 C68.9,20.1 70.3,22.6 70.3,26.8 L70.3,42.8 L79.2,42.8 L79.2,35.8 C81.7,40.7 86.7,43.5 92.7,43.5 C98.4,43.5 104,40.9 106.6,35.3 L106.6,42.8 L115.7,42.8 L115.7,25.8 C115.7,25 115.8,24.1 116,23.5 C116.7,21.8 118.2,20.1 120.7,20.1 C124,20.1 125.3,22.7 125.3,26.5 L125.3,42.8 L134.4,42.8 L134.4,25.4 C134.2,16.8 129.7,12.7 123.7,12.7 Z M22.6,18.8 C26.8,18.8 27.8,22.5 27.8,24.7 L17,24.7 C17.2,22.3 18.8,18.8 22.6,18.8 Z M33.4,35.3 C30.9,36.1 28.4,36.6 25.3,36.6 C21,36.6 17.3,34.8 17,31 L34.5,31 L34.5,40.9 L33.4,35.3 Z" id="Shape"></path>
                    <path d="M138.8,9.8 C141.9,9.8 143.7,7.8 143.7,5.2 C143.6,2.6 141.8,0.6 138.9,0.6 C136,0.6 134,2.6 134,5.2 C134,7.8 135.9,9.8 138.8,9.8 Z" id="Path"></path>
                    <path d="M190.3,27.4 C190.3,20.1 186.7,12.8 177.2,12.8 C172.3,12.8 168.7,14.7 166.2,17.6 L166.2,13.5 L143.4,13.5 L142.2,13.5 L134.3,13.5 L134.3,42.8 L141.2,42.8 L143.4,42.8 L166.7,42.8 L166.7,39.6 C169.4,42.1 173.2,43.4 178,43.4 C182,43.4 185.6,42.8 188.6,41.5 L187.4,35.3 C184.9,36.1 182.4,36.6 179.3,36.6 C175,36.6 171.3,34.8 171,31 L190,31 C190.1,30.3 190.3,28.9 190.3,27.4 Z M143.4,34.7 L143.4,20.7 L155,20.7 L155,20.8 C153.4,22.5 152.1,24 150.4,26 L143.4,34.7 Z M152.6,35.4 C154.3,33.8 155.8,31.9 157.4,30.1 L163.4,22.6 C162.7,24.5 162.4,26.5 162.4,28.5 C162.4,31.2 162.9,33.5 163.8,35.6 L152.6,35.6 L152.6,35.4 L152.6,35.4 Z M171,24.7 C171.2,22.3 172.8,18.8 176.6,18.8 C180.8,18.8 181.8,22.5 181.8,24.7 L171,24.7 Z" id="Shape"></path>
                </g>
                <path d="M30.9739261,8.03011671 C20.0739261,0.830116711 4.8739261,-2.26988329 1.7739261,1.83011671 C-2.1260739,7.03011671 0.773926104,18.8301167 6.8739261,28.3301167 C10.6739261,19.6301167 21.0739261,12.0301167 30.9739261,8.03011671 Z" id="Path" fill="#000000"></path>
                <path d="M28.4739261,16.5301167 C32.6739261,16.5301167 36.5739261,17.6301167 40.0739261,19.7301167 C44.4739261,22.3301167 46.3739261,27.7301167 45.3739261,34.1301167 C50.4739261,23.5301167 52.0739261,11.3301167 48.6739261,9.03011671 C47.5739261,8.33011671 46.0739261,7.93011671 44.1739261,7.93011671 C37.5739261,7.93011671 27.1739261,12.1301167 19.2739261,18.2301167 C22.1739261,17.1301167 25.2739261,16.5301167 28.4739261,16.5301167 Z" id="Path" fill="#000000"></path>
                <path d="M38.3739261,22.5301167 C35.1739261,20.6301167 31.7739261,19.8301167 28.4739261,19.8301167 C13.0739261,19.8301167 -0.826073896,37.4301167 16.5739261,49.5301167 C19.3739261,51.2301167 22.0739261,51.9301167 24.5739261,51.9301167 C38.9739261,51.8301167 47.9739261,28.1301167 38.3739261,22.5301167 Z" id="Path" fill="#000000"></path>
            </g>
        </g>
    </g>
</svg>